<svg width="880" height="760" viewBox="0 0 880 760" fill="none" xmlns="http://www.w3.org/2000/svg">
  <defs>
    <linearGradient id="bg" x1="60" y1="30" x2="860" y2="730" gradientUnits="userSpaceOnUse">
      <stop stop-color="#071C3B"/>
      <stop offset="1" stop-color="#0D4AA6"/>
    </linearGradient>
    <linearGradient id="panel" x1="162" y1="120" x2="714" y2="650" gradientUnits="userSpaceOnUse">
      <stop stop-color="#12366F"/>
      <stop offset="1" stop-color="#0A2A59"/>
    </linearGradient>
    <linearGradient id="screen" x1="278" y1="194" x2="588" y2="488" gradientUnits="userSpaceOnUse">
      <stop stop-color="#0B2855"/>
      <stop offset="1" stop-color="#0B5FD3"/>
    </linearGradient>
    <linearGradient id="floor" x1="153" y1="600" x2="726" y2="600" gradientUnits="userSpaceOnUse">
      <stop stop-color="#153B79" stop-opacity="0.95"/>
      <stop offset="1" stop-color="#0D2E64"/>
    </linearGradient>
  </defs>
  <rect x="0" y="0" width="880" height="760" rx="28" fill="url(#bg)"/>
  <circle cx="620" cy="120" r="140" fill="#3B82F6" fill-opacity="0.12"/>
  <circle cx="180" cy="80" r="110" fill="#60A5FA" fill-opacity="0.12"/>
  <rect x="114" y="94" width="654" height="560" rx="18" fill="url(#panel)" stroke="#2A67C7" stroke-opacity="0.5"/>
  <rect x="240" y="170" width="400" height="330" rx="12" fill="#0A234A" stroke="#2E6AD3"/>
  <rect x="266" y="194" width="348" height="266" rx="10" fill="url(#screen)"/>

  <path d="M282 438L304 392L326 420L350 350L374 404L396 328L420 390L446 310L474 372L500 288L528 344L556 268L590 330" stroke="#7DD3FC" stroke-width="6" stroke-linecap="round" stroke-linejoin="round"/>
  <path d="M286 430L590 430" stroke="#93C5FD" stroke-opacity="0.5"/>
  <path d="M286 394L590 394" stroke="#93C5FD" stroke-opacity="0.4"/>
  <path d="M286 358L590 358" stroke="#93C5FD" stroke-opacity="0.3"/>
  <path d="M286 322L590 322" stroke="#93C5FD" stroke-opacity="0.2"/>
  <path d="M286 286L590 286" stroke="#93C5FD" stroke-opacity="0.16"/>

  <rect x="240" y="518" width="400" height="18" rx="9" fill="#0E2F63"/>
  <rect x="153" y="566" width="573" height="62" rx="14" fill="url(#floor)"/>
  <rect x="360" y="534" width="160" height="28" rx="8" fill="#17498E"/>
  <circle cx="438" cy="548" r="8" fill="#7DD3FC"/>

  <circle cx="208" cy="618" r="11" fill="#3B82F6"/>
  <circle cx="248" cy="618" r="11" fill="#3B82F6"/>
  <circle cx="288" cy="618" r="11" fill="#3B82F6"/>
  <circle cx="328" cy="618" r="11" fill="#3B82F6"/>
  <circle cx="368" cy="618" r="11" fill="#3B82F6"/>
  <circle cx="508" cy="618" r="11" fill="#3B82F6"/>
  <circle cx="548" cy="618" r="11" fill="#3B82F6"/>
  <circle cx="588" cy="618" r="11" fill="#3B82F6"/>
  <circle cx="628" cy="618" r="11" fill="#3B82F6"/>
  <circle cx="668" cy="618" r="11" fill="#3B82F6"/>
</svg>
