<svg width="200" height="200" viewBox="0 0 200 200" fill="none" xmlns="http://www.w3.org/2000/svg">
  <defs>
    <linearGradient id="bg" x1="0" y1="0" x2="200" y2="200" gradientUnits="userSpaceOnUse">
      <stop stop-color="#2563EB"/>
      <stop offset="0.55" stop-color="#14B8A6"/>
      <stop offset="1" stop-color="#22C55E"/>
    </linearGradient>

    <linearGradient id="card" x1="42" y1="40" x2="158" y2="178" gradientUnits="userSpaceOnUse">
      <stop stop-color="#FFFFFF"/>
      <stop offset="1" stop-color="#EAF7FF"/>
    </linearGradient>

    <filter id="shadow" x="-30%" y="-30%" width="160%" height="160%">
      <feDropShadow dx="0" dy="12" stdDeviation="12" flood-color="#0F172A" flood-opacity="0.16"/>
    </filter>

    <filter id="softShadow" x="-30%" y="-30%" width="160%" height="160%">
      <feDropShadow dx="0" dy="8" stdDeviation="8" flood-color="#0F172A" flood-opacity="0.14"/>
    </filter>
  </defs>

  <rect x="0" y="0" width="200" height="200" rx="44" fill="url(#bg)" filter="url(#shadow)"/>

  <circle cx="39" cy="37" r="34" fill="white" fill-opacity="0.14"/>
  <circle cx="168" cy="167" r="46" fill="white" fill-opacity="0.12"/>
  <circle cx="169" cy="36" r="12" fill="white" fill-opacity="0.28"/>

  <rect x="42" y="40" width="116" height="138" rx="24" fill="url(#card)" filter="url(#softShadow)"/>

  <rect x="62" y="66" width="76" height="10" rx="5" fill="#CBD5E1"/>
  <rect x="62" y="88" width="48" height="8" rx="4" fill="#DCE9F3"/>

  <circle cx="100" cy="115" r="22" fill="#DBEAFE"/>
  <circle cx="100" cy="108" r="9" fill="#2563EB"/>
  <path d="M80 138C84 126 92 121 100 121C108 121 116 126 120 138"
        stroke="#2563EB"
        stroke-width="8"
        stroke-linecap="round"/>

  <path d="M72 56L100 44L128 56L100 68L72 56Z" fill="#0F172A"/>
  <path d="M85 62V74C85 81 92 86 100 86C108 86 115 81 115 74V62"
        stroke="#0F172A"
        stroke-width="7"
        stroke-linecap="round"/>
  <path d="M128 57V76" stroke="#0F172A" stroke-width="5" stroke-linecap="round"/>
  <circle cx="128" cy="81" r="5" fill="#0F172A"/>

  <circle cx="146" cy="152" r="34" fill="#22C55E" stroke="white" stroke-width="8"/>
  <path d="M130 152L141 163L163 139"
        stroke="white"
        stroke-width="9"
        stroke-linecap="round"
        stroke-linejoin="round"/>
</svg>
